<?xml version="1.0" encoding="utf-8" standalone="no"?>
<!DOCTYPE svg PUBLIC "-//W3C//DTD SVG 1.1//EN"
  "http://www.w3.org/Graphics/SVG/1.1/DTD/svg11.dtd">
<svg xmlns:xlink="http://www.w3.org/1999/xlink" width="648pt" height="720pt" viewBox="0 0 648 720" xmlns="http://www.w3.org/2000/svg" version="1.1">
 <metadata>
  <rdf:RDF xmlns:dc="http://purl.org/dc/elements/1.1/" xmlns:cc="http://creativecommons.org/ns#" xmlns:rdf="http://www.w3.org/1999/02/22-rdf-syntax-ns#">
   <cc:Work>
    <dc:type rdf:resource="http://purl.org/dc/dcmitype/StillImage"/>
    <dc:format>image/svg+xml</dc:format>
   </cc:Work>
  </rdf:RDF>
 </metadata>
 <defs>
  <style type="text/css">*{stroke-linejoin: round; stroke-linecap: butt}</style>
 </defs>
 <g id="figure_1">
  <g id="patch_1">
   <path d="M 0 720 
L 648 720 
L 648 0 
L 0 0 
z
" style="fill: #080a10"/>
  </g>
  <g id="axes_1">
   <g id="patch_2">
    <path d="M 174.563636 679.872727 
L 637.2 679.872727 
L 637.2 10.8 
L 174.563636 10.8 
z
" style="fill: #0e1118"/>
   </g>
   <g id="patch_3">
    <path d="M 174.563636 41.212397 
L 285.687077 41.212397 
L 285.687077 55.755596 
L 174.563636 55.755596 
z
" clip-path="url(#p07c61f6e68)" style="fill: #7c3aed"/>
   </g>
   <g id="patch_4">
    <path d="M 174.563636 92.541336 
L 554.424376 92.541336 
L 554.424376 107.084536 
L 174.563636 107.084536 
z
" clip-path="url(#p07c61f6e68)" style="fill: #7c3aed"/>
   </g>
   <g id="patch_5">
    <path d="M 174.563636 143.870276 
L 510.201783 143.870276 
L 510.201783 158.413475 
L 174.563636 158.413475 
z
" clip-path="url(#p07c61f6e68)" style="fill: #7c3aed"/>
   </g>
   <g id="patch_6">
    <path d="M 174.563636 195.199215 
L 468.247014 195.199215 
L 468.247014 209.742415 
L 174.563636 209.742415 
z
" clip-path="url(#p07c61f6e68)" style="fill: #7c3aed"/>
   </g>
   <g id="patch_7">
    <path d="M 174.563636 246.528155 
L 402.48008 246.528155 
L 402.48008 261.071355 
L 174.563636 261.071355 
z
" clip-path="url(#p07c61f6e68)" style="fill: #7c3aed"/>
   </g>
   <g id="patch_8">
    <path d="M 174.563636 297.857095 
L 352.587923 297.857095 
L 352.587923 312.400294 
L 174.563636 312.400294 
z
" clip-path="url(#p07c61f6e68)" style="fill: #7c3aed"/>
   </g>
   <g id="patch_9">
    <path d="M 174.563636 349.186034 
L 177.965374 349.186034 
L 177.965374 363.729234 
L 174.563636 363.729234 
z
" clip-path="url(#p07c61f6e68)" style="fill: #7c3aed"/>
   </g>
   <g id="patch_10">
    <path d="M 174.563636 400.514974 
L 325.37402 400.514974 
L 325.37402 415.058173 
L 174.563636 415.058173 
z
" clip-path="url(#p07c61f6e68)" style="fill: #7c3aed"/>
   </g>
   <g id="patch_11">
    <path d="M 174.563636 451.843913 
L 241.464483 451.843913 
L 241.464483 466.387113 
L 174.563636 466.387113 
z
" clip-path="url(#p07c61f6e68)" style="fill: #7c3aed"/>
   </g>
   <g id="patch_12">
    <path d="M 174.563636 503.172853 
L 275.481863 503.172853 
L 275.481863 517.716052 
L 174.563636 517.716052 
z
" clip-path="url(#p07c61f6e68)" style="fill: #7c3aed"/>
   </g>
   <g id="patch_13">
    <path d="M 174.563636 554.501792 
L 273.214037 554.501792 
L 273.214037 569.044992 
L 174.563636 569.044992 
z
" clip-path="url(#p07c61f6e68)" style="fill: #7c3aed"/>
   </g>
   <g id="patch_14">
    <path d="M 174.563636 605.830732 
L 242.598396 605.830732 
L 242.598396 620.373931 
L 174.563636 620.373931 
z
" clip-path="url(#p07c61f6e68)" style="fill: #7c3aed"/>
   </g>
   <g id="patch_15">
    <path d="M 174.563636 55.755596 
L 249.401872 55.755596 
L 249.401872 70.298796 
L 174.563636 70.298796 
z
" clip-path="url(#p07c61f6e68)" style="fill: #dc2626"/>
   </g>
   <g id="patch_16">
    <path d="M 174.563636 107.084536 
L 433.095722 107.084536 
L 433.095722 121.627735 
L 174.563636 121.627735 
z
" clip-path="url(#p07c61f6e68)" style="fill: #dc2626"/>
   </g>
   <g id="patch_17">
    <path d="M 174.563636 158.413475 
L 284.553164 158.413475 
L 284.553164 172.956675 
L 174.563636 172.956675 
z
" clip-path="url(#p07c61f6e68)" style="fill: #dc2626"/>
   </g>
   <g id="patch_18">
    <path d="M 174.563636 209.742415 
L 219.920143 209.742415 
L 219.920143 224.285614 
L 174.563636 224.285614 
z
" clip-path="url(#p07c61f6e68)" style="fill: #dc2626"/>
   </g>
   <g id="patch_19">
    <path d="M 174.563636 261.071355 
L 189.304501 261.071355 
L 189.304501 275.614554 
L 174.563636 275.614554 
z
" clip-path="url(#p07c61f6e68)" style="fill: #dc2626"/>
   </g>
   <g id="patch_20">
    <path d="M 174.563636 312.400294 
L 177.965374 312.400294 
L 177.965374 326.943494 
L 174.563636 326.943494 
z
" clip-path="url(#p07c61f6e68)" style="fill: #dc2626"/>
   </g>
   <g id="patch_21">
    <path d="M 174.563636 363.729234 
L 174.563636 363.729234 
L 174.563636 378.272433 
L 174.563636 378.272433 
z
" clip-path="url(#p07c61f6e68)" style="fill: #dc2626"/>
   </g>
   <g id="patch_22">
    <path d="M 174.563636 415.058173 
L 213.116667 415.058173 
L 213.116667 429.601373 
L 174.563636 429.601373 
z
" clip-path="url(#p07c61f6e68)" style="fill: #dc2626"/>
   </g>
   <g id="patch_23">
    <path d="M 174.563636 466.387113 
L 293.624465 466.387113 
L 293.624465 480.930312 
L 174.563636 480.930312 
z
" clip-path="url(#p07c61f6e68)" style="fill: #dc2626"/>
   </g>
   <g id="patch_24">
    <path d="M 174.563636 517.716052 
L 216.518405 517.716052 
L 216.518405 532.259252 
L 174.563636 532.259252 
z
" clip-path="url(#p07c61f6e68)" style="fill: #dc2626"/>
   </g>
   <g id="patch_25">
    <path d="M 174.563636 569.044992 
L 181.367112 569.044992 
L 181.367112 583.588191 
L 174.563636 583.588191 
z
" clip-path="url(#p07c61f6e68)" style="fill: #dc2626"/>
   </g>
   <g id="patch_26">
    <path d="M 174.563636 620.373931 
L 194.974064 620.373931 
L 194.974064 634.917131 
L 174.563636 634.917131 
z
" clip-path="url(#p07c61f6e68)" style="fill: #dc2626"/>
   </g>
   <g id="patch_27">
    <path d="M 174.563636 70.298796 
L 560.093939 70.298796 
L 560.093939 84.841995 
L 174.563636 84.841995 
z
" clip-path="url(#p07c61f6e68)" style="fill: #14b8a6"/>
   </g>
   <g id="patch_28">
    <path d="M 174.563636 121.627735 
L 176.831462 121.627735 
L 176.831462 136.170935 
L 174.563636 136.170935 
z
" clip-path="url(#p07c61f6e68)" style="fill: #14b8a6"/>
   </g>
   <g id="patch_29">
    <path d="M 174.563636 172.956675 
L 216.518405 172.956675 
L 216.518405 187.499874 
L 174.563636 187.499874 
z
" clip-path="url(#p07c61f6e68)" style="fill: #14b8a6"/>
   </g>
   <g id="patch_30">
    <path d="M 174.563636 224.285614 
L 197.241889 224.285614 
L 197.241889 238.828814 
L 174.563636 238.828814 
z
" clip-path="url(#p07c61f6e68)" style="fill: #14b8a6"/>
   </g>
   <g id="patch_31">
    <path d="M 174.563636 275.614554 
L 187.036676 275.614554 
L 187.036676 290.157754 
L 174.563636 290.157754 
z
" clip-path="url(#p07c61f6e68)" style="fill: #14b8a6"/>
   </g>
   <g id="patch_32">
    <path d="M 174.563636 326.943494 
L 176.831462 326.943494 
L 176.831462 341.486693 
L 174.563636 341.486693 
z
" clip-path="url(#p07c61f6e68)" style="fill: #14b8a6"/>
   </g>
   <g id="patch_33">
    <path d="M 174.563636 378.272433 
L 328.775758 378.272433 
L 328.775758 392.815633 
L 174.563636 392.815633 
z
" clip-path="url(#p07c61f6e68)" style="fill: #14b8a6"/>
   </g>
   <g id="patch_34">
    <path d="M 174.563636 429.601373 
L 201.77754 429.601373 
L 201.77754 444.144572 
L 174.563636 444.144572 
z
" clip-path="url(#p07c61f6e68)" style="fill: #14b8a6"/>
   </g>
   <g id="patch_35">
    <path d="M 174.563636 480.930312 
L 183.634938 480.930312 
L 183.634938 495.473512 
L 174.563636 495.473512 
z
" clip-path="url(#p07c61f6e68)" style="fill: #14b8a6"/>
   </g>
   <g id="patch_36">
    <path d="M 174.563636 532.259252 
L 233.527094 532.259252 
L 233.527094 546.802451 
L 174.563636 546.802451 
z
" clip-path="url(#p07c61f6e68)" style="fill: #14b8a6"/>
   </g>
   <g id="patch_37">
    <path d="M 174.563636 583.588191 
L 244.866221 583.588191 
L 244.866221 598.131391 
L 174.563636 598.131391 
z
" clip-path="url(#p07c61f6e68)" style="fill: #14b8a6"/>
   </g>
   <g id="patch_38">
    <path d="M 174.563636 634.917131 
L 193.840152 634.917131 
L 193.840152 649.460331 
L 174.563636 649.460331 
z
" clip-path="url(#p07c61f6e68)" style="fill: #14b8a6"/>
   </g>
   <g id="matplotlib.axis_1">
    <g id="xtick_1">
     <g id="line2d_1">
      <path d="M 174.563636 679.872727 
L 174.563636 10.8 
" clip-path="url(#p07c61f6e68)" style="fill: none; stroke: #1a1f2e; stroke-opacity: 0.6; stroke-width: 0.5; stroke-linecap: square"/>
     </g>
     <g id="line2d_2">
      <defs>
       <path id="mff3be124f5" d="M 0 0 
L 0 3.5 
" style="stroke: #7a99ba; stroke-width: 0.8"/>
      </defs>
      <g>
       <use xlink:href="#mff3be124f5" x="174.563636" y="679.872727" style="fill: #7a99ba; stroke: #7a99ba; stroke-width: 0.8"/>
      </g>
     </g>
     <g id="text_1">
      <!-- 0 -->
      <g style="fill: #7a99ba" transform="translate(171.700511 693.711321) scale(0.09 -0.09)">
       <defs>
        <path id="DejaVuSans-30" d="M 2034 4250 
Q 1547 4250 1301 3770 
Q 1056 3291 1056 2328 
Q 1056 1369 1301 889 
Q 1547 409 2034 409 
Q 2525 409 2770 889 
Q 3016 1369 3016 2328 
Q 3016 3291 2770 3770 
Q 2525 4250 2034 4250 
z
M 2034 4750 
Q 2819 4750 3233 4129 
Q 3647 3509 3647 2328 
Q 3647 1150 3233 529 
Q 2819 -91 2034 -91 
Q 1250 -91 836 529 
Q 422 1150 422 2328 
Q 422 3509 836 4129 
Q 1250 4750 2034 4750 
z
" transform="scale(0.015625)"/>
       </defs>
       <use xlink:href="#DejaVuSans-30"/>
      </g>
     </g>
    </g>
    <g id="xtick_2">
     <g id="line2d_3">
      <path d="M 231.259269 679.872727 
L 231.259269 10.8 
" clip-path="url(#p07c61f6e68)" style="fill: none; stroke: #1a1f2e; stroke-opacity: 0.6; stroke-width: 0.5; stroke-linecap: square"/>
     </g>
     <g id="line2d_4">
      <g>
       <use xlink:href="#mff3be124f5" x="231.259269" y="679.872727" style="fill: #7a99ba; stroke: #7a99ba; stroke-width: 0.8"/>
      </g>
     </g>
     <g id="text_2">
      <!-- 50 -->
      <g style="fill: #7a99ba" transform="translate(225.533019 693.711321) scale(0.09 -0.09)">
       <defs>
        <path id="DejaVuSans-35" d="M 691 4666 
L 3169 4666 
L 3169 4134 
L 1269 4134 
L 1269 2991 
Q 1406 3038 1543 3061 
Q 1681 3084 1819 3084 
Q 2600 3084 3056 2656 
Q 3513 2228 3513 1497 
Q 3513 744 3044 326 
Q 2575 -91 1722 -91 
Q 1428 -91 1123 -41 
Q 819 9 494 109 
L 494 744 
Q 775 591 1075 516 
Q 1375 441 1709 441 
Q 2250 441 2565 725 
Q 2881 1009 2881 1497 
Q 2881 1984 2565 2268 
Q 2250 2553 1709 2553 
Q 1456 2553 1204 2497 
Q 953 2441 691 2322 
L 691 4666 
z
" transform="scale(0.015625)"/>
       </defs>
       <use xlink:href="#DejaVuSans-35"/>
       <use xlink:href="#DejaVuSans-30" x="63.623047"/>
      </g>
     </g>
    </g>
    <g id="xtick_3">
     <g id="line2d_5">
      <path d="M 287.954902 679.872727 
L 287.954902 10.8 
" clip-path="url(#p07c61f6e68)" style="fill: none; stroke: #1a1f2e; stroke-opacity: 0.6; stroke-width: 0.5; stroke-linecap: square"/>
     </g>
     <g id="line2d_6">
      <g>
       <use xlink:href="#mff3be124f5" x="287.954902" y="679.872727" style="fill: #7a99ba; stroke: #7a99ba; stroke-width: 0.8"/>
      </g>
     </g>
     <g id="text_3">
      <!-- 100 -->
      <g style="fill: #7a99ba" transform="translate(279.365527 693.711321) scale(0.09 -0.09)">
       <defs>
        <path id="DejaVuSans-31" d="M 794 531 
L 1825 531 
L 1825 4091 
L 703 3866 
L 703 4441 
L 1819 4666 
L 2450 4666 
L 2450 531 
L 3481 531 
L 3481 0 
L 794 0 
L 794 531 
z
" transform="scale(0.015625)"/>
       </defs>
       <use xlink:href="#DejaVuSans-31"/>
       <use xlink:href="#DejaVuSans-30" x="63.623047"/>
       <use xlink:href="#DejaVuSans-30" x="127.246094"/>
      </g>
     </g>
    </g>
    <g id="xtick_4">
     <g id="line2d_7">
      <path d="M 344.650535 679.872727 
L 344.650535 10.8 
" clip-path="url(#p07c61f6e68)" style="fill: none; stroke: #1a1f2e; stroke-opacity: 0.6; stroke-width: 0.5; stroke-linecap: square"/>
     </g>
     <g id="line2d_8">
      <g>
       <use xlink:href="#mff3be124f5" x="344.650535" y="679.872727" style="fill: #7a99ba; stroke: #7a99ba; stroke-width: 0.8"/>
      </g>
     </g>
     <g id="text_4">
      <!-- 150 -->
      <g style="fill: #7a99ba" transform="translate(336.06116 693.711321) scale(0.09 -0.09)">
       <use xlink:href="#DejaVuSans-31"/>
       <use xlink:href="#DejaVuSans-35" x="63.623047"/>
       <use xlink:href="#DejaVuSans-30" x="127.246094"/>
      </g>
     </g>
    </g>
    <g id="xtick_5">
     <g id="line2d_9">
      <path d="M 401.346168 679.872727 
L 401.346168 10.8 
" clip-path="url(#p07c61f6e68)" style="fill: none; stroke: #1a1f2e; stroke-opacity: 0.6; stroke-width: 0.5; stroke-linecap: square"/>
     </g>
     <g id="line2d_10">
      <g>
       <use xlink:href="#mff3be124f5" x="401.346168" y="679.872727" style="fill: #7a99ba; stroke: #7a99ba; stroke-width: 0.8"/>
      </g>
     </g>
     <g id="text_5">
      <!-- 200 -->
      <g style="fill: #7a99ba" transform="translate(392.756793 693.711321) scale(0.09 -0.09)">
       <defs>
        <path id="DejaVuSans-32" d="M 1228 531 
L 3431 531 
L 3431 0 
L 469 0 
L 469 531 
Q 828 903 1448 1529 
Q 2069 2156 2228 2338 
Q 2531 2678 2651 2914 
Q 2772 3150 2772 3378 
Q 2772 3750 2511 3984 
Q 2250 4219 1831 4219 
Q 1534 4219 1204 4116 
Q 875 4013 500 3803 
L 500 4441 
Q 881 4594 1212 4672 
Q 1544 4750 1819 4750 
Q 2544 4750 2975 4387 
Q 3406 4025 3406 3419 
Q 3406 3131 3298 2873 
Q 3191 2616 2906 2266 
Q 2828 2175 2409 1742 
Q 1991 1309 1228 531 
z
" transform="scale(0.015625)"/>
       </defs>
       <use xlink:href="#DejaVuSans-32"/>
       <use xlink:href="#DejaVuSans-30" x="63.623047"/>
       <use xlink:href="#DejaVuSans-30" x="127.246094"/>
      </g>
     </g>
    </g>
    <g id="xtick_6">
     <g id="line2d_11">
      <path d="M 458.0418 679.872727 
L 458.0418 10.8 
" clip-path="url(#p07c61f6e68)" style="fill: none; stroke: #1a1f2e; stroke-opacity: 0.6; stroke-width: 0.5; stroke-linecap: square"/>
     </g>
     <g id="line2d_12">
      <g>
       <use xlink:href="#mff3be124f5" x="458.0418" y="679.872727" style="fill: #7a99ba; stroke: #7a99ba; stroke-width: 0.8"/>
      </g>
     </g>
     <g id="text_6">
      <!-- 250 -->
      <g style="fill: #7a99ba" transform="translate(449.452425 693.711321) scale(0.09 -0.09)">
       <use xlink:href="#DejaVuSans-32"/>
       <use xlink:href="#DejaVuSans-35" x="63.623047"/>
       <use xlink:href="#DejaVuSans-30" x="127.246094"/>
      </g>
     </g>
    </g>
    <g id="xtick_7">
     <g id="line2d_13">
      <path d="M 514.737433 679.872727 
L 514.737433 10.8 
" clip-path="url(#p07c61f6e68)" style="fill: none; stroke: #1a1f2e; stroke-opacity: 0.6; stroke-width: 0.5; stroke-linecap: square"/>
     </g>
     <g id="line2d_14">
      <g>
       <use xlink:href="#mff3be124f5" x="514.737433" y="679.872727" style="fill: #7a99ba; stroke: #7a99ba; stroke-width: 0.8"/>
      </g>
     </g>
     <g id="text_7">
      <!-- 300 -->
      <g style="fill: #7a99ba" transform="translate(506.148058 693.711321) scale(0.09 -0.09)">
       <defs>
        <path id="DejaVuSans-33" d="M 2597 2516 
Q 3050 2419 3304 2112 
Q 3559 1806 3559 1356 
Q 3559 666 3084 287 
Q 2609 -91 1734 -91 
Q 1441 -91 1130 -33 
Q 819 25 488 141 
L 488 750 
Q 750 597 1062 519 
Q 1375 441 1716 441 
Q 2309 441 2620 675 
Q 2931 909 2931 1356 
Q 2931 1769 2642 2001 
Q 2353 2234 1838 2234 
L 1294 2234 
L 1294 2753 
L 1863 2753 
Q 2328 2753 2575 2939 
Q 2822 3125 2822 3475 
Q 2822 3834 2567 4026 
Q 2313 4219 1838 4219 
Q 1578 4219 1281 4162 
Q 984 4106 628 3988 
L 628 4550 
Q 988 4650 1302 4700 
Q 1616 4750 1894 4750 
Q 2613 4750 3031 4423 
Q 3450 4097 3450 3541 
Q 3450 3153 3228 2886 
Q 3006 2619 2597 2516 
z
" transform="scale(0.015625)"/>
       </defs>
       <use xlink:href="#DejaVuSans-33"/>
       <use xlink:href="#DejaVuSans-30" x="63.623047"/>
       <use xlink:href="#DejaVuSans-30" x="127.246094"/>
      </g>
     </g>
    </g>
    <g id="xtick_8">
     <g id="line2d_15">
      <path d="M 571.433066 679.872727 
L 571.433066 10.8 
" clip-path="url(#p07c61f6e68)" style="fill: none; stroke: #1a1f2e; stroke-opacity: 0.6; stroke-width: 0.5; stroke-linecap: square"/>
     </g>
     <g id="line2d_16">
      <g>
       <use xlink:href="#mff3be124f5" x="571.433066" y="679.872727" style="fill: #7a99ba; stroke: #7a99ba; stroke-width: 0.8"/>
      </g>
     </g>
     <g id="text_8">
      <!-- 350 -->
      <g style="fill: #7a99ba" transform="translate(562.843691 693.711321) scale(0.09 -0.09)">
       <use xlink:href="#DejaVuSans-33"/>
       <use xlink:href="#DejaVuSans-35" x="63.623047"/>
       <use xlink:href="#DejaVuSans-30" x="127.246094"/>
      </g>
     </g>
    </g>
    <g id="xtick_9">
     <g id="line2d_17">
      <path d="M 628.128699 679.872727 
L 628.128699 10.8 
" clip-path="url(#p07c61f6e68)" style="fill: none; stroke: #1a1f2e; stroke-opacity: 0.6; stroke-width: 0.5; stroke-linecap: square"/>
     </g>
     <g id="line2d_18">
      <g>
       <use xlink:href="#mff3be124f5" x="628.128699" y="679.872727" style="fill: #7a99ba; stroke: #7a99ba; stroke-width: 0.8"/>
      </g>
     </g>
     <g id="text_9">
      <!-- 400 -->
      <g style="fill: #7a99ba" transform="translate(619.539324 693.711321) scale(0.09 -0.09)">
       <defs>
        <path id="DejaVuSans-34" d="M 2419 4116 
L 825 1625 
L 2419 1625 
L 2419 4116 
z
M 2253 4666 
L 3047 4666 
L 3047 1625 
L 3713 1625 
L 3713 1100 
L 3047 1100 
L 3047 0 
L 2419 0 
L 2419 1100 
L 313 1100 
L 313 1709 
L 2253 4666 
z
" transform="scale(0.015625)"/>
       </defs>
       <use xlink:href="#DejaVuSans-34"/>
       <use xlink:href="#DejaVuSans-30" x="63.623047"/>
       <use xlink:href="#DejaVuSans-30" x="127.246094"/>
      </g>
     </g>
    </g>
    <g id="text_10">
     <!-- Open positions (latest snapshot) -->
     <g style="fill: #7a99ba" transform="translate(332.718146 706.421634) scale(0.09 -0.09)">
      <defs>
       <path id="DejaVuSans-4f" d="M 2522 4238 
Q 1834 4238 1429 3725 
Q 1025 3213 1025 2328 
Q 1025 1447 1429 934 
Q 1834 422 2522 422 
Q 3209 422 3611 934 
Q 4013 1447 4013 2328 
Q 4013 3213 3611 3725 
Q 3209 4238 2522 4238 
z
M 2522 4750 
Q 3503 4750 4090 4092 
Q 4678 3434 4678 2328 
Q 4678 1225 4090 567 
Q 3503 -91 2522 -91 
Q 1538 -91 948 565 
Q 359 1222 359 2328 
Q 359 3434 948 4092 
Q 1538 4750 2522 4750 
z
" transform="scale(0.015625)"/>
       <path id="DejaVuSans-70" d="M 1159 525 
L 1159 -1331 
L 581 -1331 
L 581 3500 
L 1159 3500 
L 1159 2969 
Q 1341 3281 1617 3432 
Q 1894 3584 2278 3584 
Q 2916 3584 3314 3078 
Q 3713 2572 3713 1747 
Q 3713 922 3314 415 
Q 2916 -91 2278 -91 
Q 1894 -91 1617 61 
Q 1341 213 1159 525 
z
M 3116 1747 
Q 3116 2381 2855 2742 
Q 2594 3103 2138 3103 
Q 1681 3103 1420 2742 
Q 1159 2381 1159 1747 
Q 1159 1113 1420 752 
Q 1681 391 2138 391 
Q 2594 391 2855 752 
Q 3116 1113 3116 1747 
z
" transform="scale(0.015625)"/>
       <path id="DejaVuSans-65" d="M 3597 1894 
L 3597 1613 
L 953 1613 
Q 991 1019 1311 708 
Q 1631 397 2203 397 
Q 2534 397 2845 478 
Q 3156 559 3463 722 
L 3463 178 
Q 3153 47 2828 -22 
Q 2503 -91 2169 -91 
Q 1331 -91 842 396 
Q 353 884 353 1716 
Q 353 2575 817 3079 
Q 1281 3584 2069 3584 
Q 2775 3584 3186 3129 
Q 3597 2675 3597 1894 
z
M 3022 2063 
Q 3016 2534 2758 2815 
Q 2500 3097 2075 3097 
Q 1594 3097 1305 2825 
Q 1016 2553 972 2059 
L 3022 2063 
z
" transform="scale(0.015625)"/>
       <path id="DejaVuSans-6e" d="M 3513 2113 
L 3513 0 
L 2938 0 
L 2938 2094 
Q 2938 2591 2744 2837 
Q 2550 3084 2163 3084 
Q 1697 3084 1428 2787 
Q 1159 2491 1159 1978 
L 1159 0 
L 581 0 
L 581 3500 
L 1159 3500 
L 1159 2956 
Q 1366 3272 1645 3428 
Q 1925 3584 2291 3584 
Q 2894 3584 3203 3211 
Q 3513 2838 3513 2113 
z
" transform="scale(0.015625)"/>
       <path id="DejaVuSans-20" transform="scale(0.015625)"/>
       <path id="DejaVuSans-6f" d="M 1959 3097 
Q 1497 3097 1228 2736 
Q 959 2375 959 1747 
Q 959 1119 1226 758 
Q 1494 397 1959 397 
Q 2419 397 2687 759 
Q 2956 1122 2956 1747 
Q 2956 2369 2687 2733 
Q 2419 3097 1959 3097 
z
M 1959 3584 
Q 2709 3584 3137 3096 
Q 3566 2609 3566 1747 
Q 3566 888 3137 398 
Q 2709 -91 1959 -91 
Q 1206 -91 779 398 
Q 353 888 353 1747 
Q 353 2609 779 3096 
Q 1206 3584 1959 3584 
z
" transform="scale(0.015625)"/>
       <path id="DejaVuSans-73" d="M 2834 3397 
L 2834 2853 
Q 2591 2978 2328 3040 
Q 2066 3103 1784 3103 
Q 1356 3103 1142 2972 
Q 928 2841 928 2578 
Q 928 2378 1081 2264 
Q 1234 2150 1697 2047 
L 1894 2003 
Q 2506 1872 2764 1633 
Q 3022 1394 3022 966 
Q 3022 478 2636 193 
Q 2250 -91 1575 -91 
Q 1294 -91 989 -36 
Q 684 19 347 128 
L 347 722 
Q 666 556 975 473 
Q 1284 391 1588 391 
Q 1994 391 2212 530 
Q 2431 669 2431 922 
Q 2431 1156 2273 1281 
Q 2116 1406 1581 1522 
L 1381 1569 
Q 847 1681 609 1914 
Q 372 2147 372 2553 
Q 372 3047 722 3315 
Q 1072 3584 1716 3584 
Q 2034 3584 2315 3537 
Q 2597 3491 2834 3397 
z
" transform="scale(0.015625)"/>
       <path id="DejaVuSans-69" d="M 603 3500 
L 1178 3500 
L 1178 0 
L 603 0 
L 603 3500 
z
M 603 4863 
L 1178 4863 
L 1178 4134 
L 603 4134 
L 603 4863 
z
" transform="scale(0.015625)"/>
       <path id="DejaVuSans-74" d="M 1172 4494 
L 1172 3500 
L 2356 3500 
L 2356 3053 
L 1172 3053 
L 1172 1153 
Q 1172 725 1289 603 
Q 1406 481 1766 481 
L 2356 481 
L 2356 0 
L 1766 0 
Q 1100 0 847 248 
Q 594 497 594 1153 
L 594 3053 
L 172 3053 
L 172 3500 
L 594 3500 
L 594 4494 
L 1172 4494 
z
" transform="scale(0.015625)"/>
       <path id="DejaVuSans-28" d="M 1984 4856 
Q 1566 4138 1362 3434 
Q 1159 2731 1159 2009 
Q 1159 1288 1364 580 
Q 1569 -128 1984 -844 
L 1484 -844 
Q 1016 -109 783 600 
Q 550 1309 550 2009 
Q 550 2706 781 3412 
Q 1013 4119 1484 4856 
L 1984 4856 
z
" transform="scale(0.015625)"/>
       <path id="DejaVuSans-6c" d="M 603 4863 
L 1178 4863 
L 1178 0 
L 603 0 
L 603 4863 
z
" transform="scale(0.015625)"/>
       <path id="DejaVuSans-61" d="M 2194 1759 
Q 1497 1759 1228 1600 
Q 959 1441 959 1056 
Q 959 750 1161 570 
Q 1363 391 1709 391 
Q 2188 391 2477 730 
Q 2766 1069 2766 1631 
L 2766 1759 
L 2194 1759 
z
M 3341 1997 
L 3341 0 
L 2766 0 
L 2766 531 
Q 2569 213 2275 61 
Q 1981 -91 1556 -91 
Q 1019 -91 701 211 
Q 384 513 384 1019 
Q 384 1609 779 1909 
Q 1175 2209 1959 2209 
L 2766 2209 
L 2766 2266 
Q 2766 2663 2505 2880 
Q 2244 3097 1772 3097 
Q 1472 3097 1187 3025 
Q 903 2953 641 2809 
L 641 3341 
Q 956 3463 1253 3523 
Q 1550 3584 1831 3584 
Q 2591 3584 2966 3190 
Q 3341 2797 3341 1997 
z
" transform="scale(0.015625)"/>
       <path id="DejaVuSans-68" d="M 3513 2113 
L 3513 0 
L 2938 0 
L 2938 2094 
Q 2938 2591 2744 2837 
Q 2550 3084 2163 3084 
Q 1697 3084 1428 2787 
Q 1159 2491 1159 1978 
L 1159 0 
L 581 0 
L 581 4863 
L 1159 4863 
L 1159 2956 
Q 1366 3272 1645 3428 
Q 1925 3584 2291 3584 
Q 2894 3584 3203 3211 
Q 3513 2838 3513 2113 
z
" transform="scale(0.015625)"/>
       <path id="DejaVuSans-29" d="M 513 4856 
L 1013 4856 
Q 1481 4119 1714 3412 
Q 1947 2706 1947 2009 
Q 1947 1309 1714 600 
Q 1481 -109 1013 -844 
L 513 -844 
Q 928 -128 1133 580 
Q 1338 1288 1338 2009 
Q 1338 2731 1133 3434 
Q 928 4138 513 4856 
z
" transform="scale(0.015625)"/>
      </defs>
      <use xlink:href="#DejaVuSans-4f"/>
      <use xlink:href="#DejaVuSans-70" x="78.710938"/>
      <use xlink:href="#DejaVuSans-65" x="142.1875"/>
      <use xlink:href="#DejaVuSans-6e" x="203.710938"/>
      <use xlink:href="#DejaVuSans-20" x="267.089844"/>
      <use xlink:href="#DejaVuSans-70" x="298.876953"/>
      <use xlink:href="#DejaVuSans-6f" x="362.353516"/>
      <use xlink:href="#DejaVuSans-73" x="423.535156"/>
      <use xlink:href="#DejaVuSans-69" x="475.634766"/>
      <use xlink:href="#DejaVuSans-74" x="503.417969"/>
      <use xlink:href="#DejaVuSans-69" x="542.626953"/>
      <use xlink:href="#DejaVuSans-6f" x="570.410156"/>
      <use xlink:href="#DejaVuSans-6e" x="631.591797"/>
      <use xlink:href="#DejaVuSans-73" x="694.970703"/>
      <use xlink:href="#DejaVuSans-20" x="747.070312"/>
      <use xlink:href="#DejaVuSans-28" x="778.857422"/>
      <use xlink:href="#DejaVuSans-6c" x="817.871094"/>
      <use xlink:href="#DejaVuSans-61" x="845.654297"/>
      <use xlink:href="#DejaVuSans-74" x="906.933594"/>
      <use xlink:href="#DejaVuSans-65" x="946.142578"/>
      <use xlink:href="#DejaVuSans-73" x="1007.666016"/>
      <use xlink:href="#DejaVuSans-74" x="1059.765625"/>
      <use xlink:href="#DejaVuSans-20" x="1098.974609"/>
      <use xlink:href="#DejaVuSans-73" x="1130.761719"/>
      <use xlink:href="#DejaVuSans-6e" x="1182.861328"/>
      <use xlink:href="#DejaVuSans-61" x="1246.240234"/>
      <use xlink:href="#DejaVuSans-70" x="1307.519531"/>
      <use xlink:href="#DejaVuSans-73" x="1370.996094"/>
      <use xlink:href="#DejaVuSans-68" x="1423.095703"/>
      <use xlink:href="#DejaVuSans-6f" x="1486.474609"/>
      <use xlink:href="#DejaVuSans-74" x="1547.65625"/>
      <use xlink:href="#DejaVuSans-29" x="1586.865234"/>
     </g>
    </g>
   </g>
   <g id="matplotlib.axis_2">
    <g id="ytick_1">
     <g id="line2d_19">
      <defs>
       <path id="mdf66c61492" d="M 0 0 
L -3.5 0 
" style="stroke: #7a99ba; stroke-width: 0.8"/>
      </defs>
      <g>
       <use xlink:href="#mdf66c61492" x="174.563636" y="63.027196" style="fill: #7a99ba; stroke: #7a99ba; stroke-width: 0.8"/>
      </g>
     </g>
     <g id="text_11">
      <!-- Laborant -->
      <g style="fill: #7a99ba" transform="translate(122.899574 66.826415) scale(0.1 -0.1)">
       <defs>
        <path id="DejaVuSans-4c" d="M 628 4666 
L 1259 4666 
L 1259 531 
L 3531 531 
L 3531 0 
L 628 0 
L 628 4666 
z
" transform="scale(0.015625)"/>
        <path id="DejaVuSans-62" d="M 3116 1747 
Q 3116 2381 2855 2742 
Q 2594 3103 2138 3103 
Q 1681 3103 1420 2742 
Q 1159 2381 1159 1747 
Q 1159 1113 1420 752 
Q 1681 391 2138 391 
Q 2594 391 2855 752 
Q 3116 1113 3116 1747 
z
M 1159 2969 
Q 1341 3281 1617 3432 
Q 1894 3584 2278 3584 
Q 2916 3584 3314 3078 
Q 3713 2572 3713 1747 
Q 3713 922 3314 415 
Q 2916 -91 2278 -91 
Q 1894 -91 1617 61 
Q 1341 213 1159 525 
L 1159 0 
L 581 0 
L 581 4863 
L 1159 4863 
L 1159 2969 
z
" transform="scale(0.015625)"/>
        <path id="DejaVuSans-72" d="M 2631 2963 
Q 2534 3019 2420 3045 
Q 2306 3072 2169 3072 
Q 1681 3072 1420 2755 
Q 1159 2438 1159 1844 
L 1159 0 
L 581 0 
L 581 3500 
L 1159 3500 
L 1159 2956 
Q 1341 3275 1631 3429 
Q 1922 3584 2338 3584 
Q 2397 3584 2469 3576 
Q 2541 3569 2628 3553 
L 2631 2963 
z
" transform="scale(0.015625)"/>
       </defs>
       <use xlink:href="#DejaVuSans-4c"/>
       <use xlink:href="#DejaVuSans-61" x="55.712891"/>
       <use xlink:href="#DejaVuSans-62" x="116.992188"/>
       <use xlink:href="#DejaVuSans-6f" x="180.46875"/>
       <use xlink:href="#DejaVuSans-72" x="241.650391"/>
       <use xlink:href="#DejaVuSans-61" x="282.763672"/>
       <use xlink:href="#DejaVuSans-6e" x="344.042969"/>
       <use xlink:href="#DejaVuSans-74" x="407.421875"/>
      </g>
     </g>
    </g>
    <g id="ytick_2">
     <g id="line2d_20">
      <g>
       <use xlink:href="#mdf66c61492" x="174.563636" y="114.356136" style="fill: #7a99ba; stroke: #7a99ba; stroke-width: 0.8"/>
      </g>
     </g>
     <g id="text_12">
      <!-- Pharmazeut -->
      <g style="fill: #7a99ba" transform="translate(107.604261 118.155354) scale(0.1 -0.1)">
       <defs>
        <path id="DejaVuSans-50" d="M 1259 4147 
L 1259 2394 
L 2053 2394 
Q 2494 2394 2734 2622 
Q 2975 2850 2975 3272 
Q 2975 3691 2734 3919 
Q 2494 4147 2053 4147 
L 1259 4147 
z
M 628 4666 
L 2053 4666 
Q 2838 4666 3239 4311 
Q 3641 3956 3641 3272 
Q 3641 2581 3239 2228 
Q 2838 1875 2053 1875 
L 1259 1875 
L 1259 0 
L 628 0 
L 628 4666 
z
" transform="scale(0.015625)"/>
        <path id="DejaVuSans-6d" d="M 3328 2828 
Q 3544 3216 3844 3400 
Q 4144 3584 4550 3584 
Q 5097 3584 5394 3201 
Q 5691 2819 5691 2113 
L 5691 0 
L 5113 0 
L 5113 2094 
Q 5113 2597 4934 2840 
Q 4756 3084 4391 3084 
Q 3944 3084 3684 2787 
Q 3425 2491 3425 1978 
L 3425 0 
L 2847 0 
L 2847 2094 
Q 2847 2600 2669 2842 
Q 2491 3084 2119 3084 
Q 1678 3084 1418 2786 
Q 1159 2488 1159 1978 
L 1159 0 
L 581 0 
L 581 3500 
L 1159 3500 
L 1159 2956 
Q 1356 3278 1631 3431 
Q 1906 3584 2284 3584 
Q 2666 3584 2933 3390 
Q 3200 3197 3328 2828 
z
" transform="scale(0.015625)"/>
        <path id="DejaVuSans-7a" d="M 353 3500 
L 3084 3500 
L 3084 2975 
L 922 459 
L 3084 459 
L 3084 0 
L 275 0 
L 275 525 
L 2438 3041 
L 353 3041 
L 353 3500 
z
" transform="scale(0.015625)"/>
        <path id="DejaVuSans-75" d="M 544 1381 
L 544 3500 
L 1119 3500 
L 1119 1403 
Q 1119 906 1312 657 
Q 1506 409 1894 409 
Q 2359 409 2629 706 
Q 2900 1003 2900 1516 
L 2900 3500 
L 3475 3500 
L 3475 0 
L 2900 0 
L 2900 538 
Q 2691 219 2414 64 
Q 2138 -91 1772 -91 
Q 1169 -91 856 284 
Q 544 659 544 1381 
z
M 1991 3584 
L 1991 3584 
z
" transform="scale(0.015625)"/>
       </defs>
       <use xlink:href="#DejaVuSans-50"/>
       <use xlink:href="#DejaVuSans-68" x="60.302734"/>
       <use xlink:href="#DejaVuSans-61" x="123.681641"/>
       <use xlink:href="#DejaVuSans-72" x="184.960938"/>
       <use xlink:href="#DejaVuSans-6d" x="224.324219"/>
       <use xlink:href="#DejaVuSans-61" x="321.736328"/>
       <use xlink:href="#DejaVuSans-7a" x="383.015625"/>
       <use xlink:href="#DejaVuSans-65" x="435.505859"/>
       <use xlink:href="#DejaVuSans-75" x="497.029297"/>
       <use xlink:href="#DejaVuSans-74" x="560.408203"/>
      </g>
     </g>
    </g>
    <g id="ytick_3">
     <g id="line2d_21">
      <g>
       <use xlink:href="#mdf66c61492" x="174.563636" y="165.685075" style="fill: #7a99ba; stroke: #7a99ba; stroke-width: 0.8"/>
      </g>
     </g>
     <g id="text_13">
      <!-- Process Development Engineer -->
      <g style="fill: #7a99ba" transform="translate(11.418324 169.484294) scale(0.1 -0.1)">
       <defs>
        <path id="DejaVuSans-63" d="M 3122 3366 
L 3122 2828 
Q 2878 2963 2633 3030 
Q 2388 3097 2138 3097 
Q 1578 3097 1268 2742 
Q 959 2388 959 1747 
Q 959 1106 1268 751 
Q 1578 397 2138 397 
Q 2388 397 2633 464 
Q 2878 531 3122 666 
L 3122 134 
Q 2881 22 2623 -34 
Q 2366 -91 2075 -91 
Q 1284 -91 818 406 
Q 353 903 353 1747 
Q 353 2603 823 3093 
Q 1294 3584 2113 3584 
Q 2378 3584 2631 3529 
Q 2884 3475 3122 3366 
z
" transform="scale(0.015625)"/>
        <path id="DejaVuSans-44" d="M 1259 4147 
L 1259 519 
L 2022 519 
Q 2988 519 3436 956 
Q 3884 1394 3884 2338 
Q 3884 3275 3436 3711 
Q 2988 4147 2022 4147 
L 1259 4147 
z
M 628 4666 
L 1925 4666 
Q 3281 4666 3915 4102 
Q 4550 3538 4550 2338 
Q 4550 1131 3912 565 
Q 3275 0 1925 0 
L 628 0 
L 628 4666 
z
" transform="scale(0.015625)"/>
        <path id="DejaVuSans-76" d="M 191 3500 
L 800 3500 
L 1894 563 
L 2988 3500 
L 3597 3500 
L 2284 0 
L 1503 0 
L 191 3500 
z
" transform="scale(0.015625)"/>
        <path id="DejaVuSans-45" d="M 628 4666 
L 3578 4666 
L 3578 4134 
L 1259 4134 
L 1259 2753 
L 3481 2753 
L 3481 2222 
L 1259 2222 
L 1259 531 
L 3634 531 
L 3634 0 
L 628 0 
L 628 4666 
z
" transform="scale(0.015625)"/>
        <path id="DejaVuSans-67" d="M 2906 1791 
Q 2906 2416 2648 2759 
Q 2391 3103 1925 3103 
Q 1463 3103 1205 2759 
Q 947 2416 947 1791 
Q 947 1169 1205 825 
Q 1463 481 1925 481 
Q 2391 481 2648 825 
Q 2906 1169 2906 1791 
z
M 3481 434 
Q 3481 -459 3084 -895 
Q 2688 -1331 1869 -1331 
Q 1566 -1331 1297 -1286 
Q 1028 -1241 775 -1147 
L 775 -588 
Q 1028 -725 1275 -790 
Q 1522 -856 1778 -856 
Q 2344 -856 2625 -561 
Q 2906 -266 2906 331 
L 2906 616 
Q 2728 306 2450 153 
Q 2172 0 1784 0 
Q 1141 0 747 490 
Q 353 981 353 1791 
Q 353 2603 747 3093 
Q 1141 3584 1784 3584 
Q 2172 3584 2450 3431 
Q 2728 3278 2906 2969 
L 2906 3500 
L 3481 3500 
L 3481 434 
z
" transform="scale(0.015625)"/>
       </defs>
       <use xlink:href="#DejaVuSans-50"/>
       <use xlink:href="#DejaVuSans-72" x="58.552734"/>
       <use xlink:href="#DejaVuSans-6f" x="97.416016"/>
       <use xlink:href="#DejaVuSans-63" x="158.597656"/>
       <use xlink:href="#DejaVuSans-65" x="213.578125"/>
       <use xlink:href="#DejaVuSans-73" x="275.101562"/>
       <use xlink:href="#DejaVuSans-73" x="327.201172"/>
       <use xlink:href="#DejaVuSans-20" x="379.300781"/>
       <use xlink:href="#DejaVuSans-44" x="411.087891"/>
       <use xlink:href="#DejaVuSans-65" x="488.089844"/>
       <use xlink:href="#DejaVuSans-76" x="549.613281"/>
       <use xlink:href="#DejaVuSans-65" x="608.792969"/>
       <use xlink:href="#DejaVuSans-6c" x="670.316406"/>
       <use xlink:href="#DejaVuSans-6f" x="698.099609"/>
       <use xlink:href="#DejaVuSans-70" x="759.28125"/>
       <use xlink:href="#DejaVuSans-6d" x="822.757812"/>
       <use xlink:href="#DejaVuSans-65" x="920.169922"/>
       <use xlink:href="#DejaVuSans-6e" x="981.693359"/>
       <use xlink:href="#DejaVuSans-74" x="1045.072266"/>
       <use xlink:href="#DejaVuSans-20" x="1084.28125"/>
       <use xlink:href="#DejaVuSans-45" x="1116.068359"/>
       <use xlink:href="#DejaVuSans-6e" x="1179.251953"/>
       <use xlink:href="#DejaVuSans-67" x="1242.630859"/>
       <use xlink:href="#DejaVuSans-69" x="1306.107422"/>
       <use xlink:href="#DejaVuSans-6e" x="1333.890625"/>
       <use xlink:href="#DejaVuSans-65" x="1397.269531"/>
       <use xlink:href="#DejaVuSans-65" x="1458.792969"/>
       <use xlink:href="#DejaVuSans-72" x="1520.316406"/>
      </g>
     </g>
    </g>
    <g id="ytick_4">
     <g id="line2d_22">
      <g>
       <use xlink:href="#mdf66c61492" x="174.563636" y="217.014015" style="fill: #7a99ba; stroke: #7a99ba; stroke-width: 0.8"/>
      </g>
     </g>
     <g id="text_14">
      <!-- Research Scientist -->
      <g style="fill: #7a99ba" transform="translate(75.577699 220.813233) scale(0.1 -0.1)">
       <defs>
        <path id="DejaVuSans-52" d="M 2841 2188 
Q 3044 2119 3236 1894 
Q 3428 1669 3622 1275 
L 4263 0 
L 3584 0 
L 2988 1197 
Q 2756 1666 2539 1819 
Q 2322 1972 1947 1972 
L 1259 1972 
L 1259 0 
L 628 0 
L 628 4666 
L 2053 4666 
Q 2853 4666 3247 4331 
Q 3641 3997 3641 3322 
Q 3641 2881 3436 2590 
Q 3231 2300 2841 2188 
z
M 1259 4147 
L 1259 2491 
L 2053 2491 
Q 2509 2491 2742 2702 
Q 2975 2913 2975 3322 
Q 2975 3731 2742 3939 
Q 2509 4147 2053 4147 
L 1259 4147 
z
" transform="scale(0.015625)"/>
        <path id="DejaVuSans-53" d="M 3425 4513 
L 3425 3897 
Q 3066 4069 2747 4153 
Q 2428 4238 2131 4238 
Q 1616 4238 1336 4038 
Q 1056 3838 1056 3469 
Q 1056 3159 1242 3001 
Q 1428 2844 1947 2747 
L 2328 2669 
Q 3034 2534 3370 2195 
Q 3706 1856 3706 1288 
Q 3706 609 3251 259 
Q 2797 -91 1919 -91 
Q 1588 -91 1214 -16 
Q 841 59 441 206 
L 441 856 
Q 825 641 1194 531 
Q 1563 422 1919 422 
Q 2459 422 2753 634 
Q 3047 847 3047 1241 
Q 3047 1584 2836 1778 
Q 2625 1972 2144 2069 
L 1759 2144 
Q 1053 2284 737 2584 
Q 422 2884 422 3419 
Q 422 4038 858 4394 
Q 1294 4750 2059 4750 
Q 2388 4750 2728 4690 
Q 3069 4631 3425 4513 
z
" transform="scale(0.015625)"/>
       </defs>
       <use xlink:href="#DejaVuSans-52"/>
       <use xlink:href="#DejaVuSans-65" x="64.982422"/>
       <use xlink:href="#DejaVuSans-73" x="126.505859"/>
       <use xlink:href="#DejaVuSans-65" x="178.605469"/>
       <use xlink:href="#DejaVuSans-61" x="240.128906"/>
       <use xlink:href="#DejaVuSans-72" x="301.408203"/>
       <use xlink:href="#DejaVuSans-63" x="340.271484"/>
       <use xlink:href="#DejaVuSans-68" x="395.251953"/>
       <use xlink:href="#DejaVuSans-20" x="458.630859"/>
       <use xlink:href="#DejaVuSans-53" x="490.417969"/>
       <use xlink:href="#DejaVuSans-63" x="553.894531"/>
       <use xlink:href="#DejaVuSans-69" x="608.875"/>
       <use xlink:href="#DejaVuSans-65" x="636.658203"/>
       <use xlink:href="#DejaVuSans-6e" x="698.181641"/>
       <use xlink:href="#DejaVuSans-74" x="761.560547"/>
       <use xlink:href="#DejaVuSans-69" x="800.769531"/>
       <use xlink:href="#DejaVuSans-73" x="828.552734"/>
       <use xlink:href="#DejaVuSans-74" x="880.652344"/>
      </g>
     </g>
    </g>
    <g id="ytick_5">
     <g id="line2d_23">
      <g>
       <use xlink:href="#mdf66c61492" x="174.563636" y="268.342954" style="fill: #7a99ba; stroke: #7a99ba; stroke-width: 0.8"/>
      </g>
     </g>
     <g id="text_15">
      <!-- Principal Scientist -->
      <g style="fill: #7a99ba" transform="translate(78.829261 272.142173) scale(0.1 -0.1)">
       <use xlink:href="#DejaVuSans-50"/>
       <use xlink:href="#DejaVuSans-72" x="58.552734"/>
       <use xlink:href="#DejaVuSans-69" x="99.666016"/>
       <use xlink:href="#DejaVuSans-6e" x="127.449219"/>
       <use xlink:href="#DejaVuSans-63" x="190.828125"/>
       <use xlink:href="#DejaVuSans-69" x="245.808594"/>
       <use xlink:href="#DejaVuSans-70" x="273.591797"/>
       <use xlink:href="#DejaVuSans-61" x="337.068359"/>
       <use xlink:href="#DejaVuSans-6c" x="398.347656"/>
       <use xlink:href="#DejaVuSans-20" x="426.130859"/>
       <use xlink:href="#DejaVuSans-53" x="457.917969"/>
       <use xlink:href="#DejaVuSans-63" x="521.394531"/>
       <use xlink:href="#DejaVuSans-69" x="576.375"/>
       <use xlink:href="#DejaVuSans-65" x="604.158203"/>
       <use xlink:href="#DejaVuSans-6e" x="665.681641"/>
       <use xlink:href="#DejaVuSans-74" x="729.060547"/>
       <use xlink:href="#DejaVuSans-69" x="768.269531"/>
       <use xlink:href="#DejaVuSans-73" x="796.052734"/>
       <use xlink:href="#DejaVuSans-74" x="848.152344"/>
      </g>
     </g>
    </g>
    <g id="ytick_6">
     <g id="line2d_24">
      <g>
       <use xlink:href="#mdf66c61492" x="174.563636" y="319.671894" style="fill: #7a99ba; stroke: #7a99ba; stroke-width: 0.8"/>
      </g>
     </g>
     <g id="text_16">
      <!-- GMP Auditor -->
      <g style="fill: #7a99ba" transform="translate(105.524574 323.471113) scale(0.1 -0.1)">
       <defs>
        <path id="DejaVuSans-47" d="M 3809 666 
L 3809 1919 
L 2778 1919 
L 2778 2438 
L 4434 2438 
L 4434 434 
Q 4069 175 3628 42 
Q 3188 -91 2688 -91 
Q 1594 -91 976 548 
Q 359 1188 359 2328 
Q 359 3472 976 4111 
Q 1594 4750 2688 4750 
Q 3144 4750 3555 4637 
Q 3966 4525 4313 4306 
L 4313 3634 
Q 3963 3931 3569 4081 
Q 3175 4231 2741 4231 
Q 1884 4231 1454 3753 
Q 1025 3275 1025 2328 
Q 1025 1384 1454 906 
Q 1884 428 2741 428 
Q 3075 428 3337 486 
Q 3600 544 3809 666 
z
" transform="scale(0.015625)"/>
        <path id="DejaVuSans-4d" d="M 628 4666 
L 1569 4666 
L 2759 1491 
L 3956 4666 
L 4897 4666 
L 4897 0 
L 4281 0 
L 4281 4097 
L 3078 897 
L 2444 897 
L 1241 4097 
L 1241 0 
L 628 0 
L 628 4666 
z
" transform="scale(0.015625)"/>
        <path id="DejaVuSans-41" d="M 2188 4044 
L 1331 1722 
L 3047 1722 
L 2188 4044 
z
M 1831 4666 
L 2547 4666 
L 4325 0 
L 3669 0 
L 3244 1197 
L 1141 1197 
L 716 0 
L 50 0 
L 1831 4666 
z
" transform="scale(0.015625)"/>
        <path id="DejaVuSans-64" d="M 2906 2969 
L 2906 4863 
L 3481 4863 
L 3481 0 
L 2906 0 
L 2906 525 
Q 2725 213 2448 61 
Q 2172 -91 1784 -91 
Q 1150 -91 751 415 
Q 353 922 353 1747 
Q 353 2572 751 3078 
Q 1150 3584 1784 3584 
Q 2172 3584 2448 3432 
Q 2725 3281 2906 2969 
z
M 947 1747 
Q 947 1113 1208 752 
Q 1469 391 1925 391 
Q 2381 391 2643 752 
Q 2906 1113 2906 1747 
Q 2906 2381 2643 2742 
Q 2381 3103 1925 3103 
Q 1469 3103 1208 2742 
Q 947 2381 947 1747 
z
" transform="scale(0.015625)"/>
       </defs>
       <use xlink:href="#DejaVuSans-47"/>
       <use xlink:href="#DejaVuSans-4d" x="77.490234"/>
       <use xlink:href="#DejaVuSans-50" x="163.769531"/>
       <use xlink:href="#DejaVuSans-20" x="224.072266"/>
       <use xlink:href="#DejaVuSans-41" x="255.859375"/>
       <use xlink:href="#DejaVuSans-75" x="324.267578"/>
       <use xlink:href="#DejaVuSans-64" x="387.646484"/>
       <use xlink:href="#DejaVuSans-69" x="451.123047"/>
       <use xlink:href="#DejaVuSans-74" x="478.90625"/>
       <use xlink:href="#DejaVuSans-6f" x="518.115234"/>
       <use xlink:href="#DejaVuSans-72" x="579.296875"/>
      </g>
     </g>
    </g>
    <g id="ytick_7">
     <g id="line2d_25">
      <g>
       <use xlink:href="#mdf66c61492" x="174.563636" y="371.000833" style="fill: #7a99ba; stroke: #7a99ba; stroke-width: 0.8"/>
      </g>
     </g>
     <g id="text_17">
      <!-- Biotechnologe -->
      <g style="fill: #7a99ba" transform="translate(96.041761 374.800052) scale(0.1 -0.1)">
       <defs>
        <path id="DejaVuSans-42" d="M 1259 2228 
L 1259 519 
L 2272 519 
Q 2781 519 3026 730 
Q 3272 941 3272 1375 
Q 3272 1813 3026 2020 
Q 2781 2228 2272 2228 
L 1259 2228 
z
M 1259 4147 
L 1259 2741 
L 2194 2741 
Q 2656 2741 2882 2914 
Q 3109 3088 3109 3444 
Q 3109 3797 2882 3972 
Q 2656 4147 2194 4147 
L 1259 4147 
z
M 628 4666 
L 2241 4666 
Q 2963 4666 3353 4366 
Q 3744 4066 3744 3513 
Q 3744 3084 3544 2831 
Q 3344 2578 2956 2516 
Q 3422 2416 3680 2098 
Q 3938 1781 3938 1306 
Q 3938 681 3513 340 
Q 3088 0 2303 0 
L 628 0 
L 628 4666 
z
" transform="scale(0.015625)"/>
       </defs>
       <use xlink:href="#DejaVuSans-42"/>
       <use xlink:href="#DejaVuSans-69" x="68.603516"/>
       <use xlink:href="#DejaVuSans-6f" x="96.386719"/>
       <use xlink:href="#DejaVuSans-74" x="157.568359"/>
       <use xlink:href="#DejaVuSans-65" x="196.777344"/>
       <use xlink:href="#DejaVuSans-63" x="258.300781"/>
       <use xlink:href="#DejaVuSans-68" x="313.28125"/>
       <use xlink:href="#DejaVuSans-6e" x="376.660156"/>
       <use xlink:href="#DejaVuSans-6f" x="440.039062"/>
       <use xlink:href="#DejaVuSans-6c" x="501.220703"/>
       <use xlink:href="#DejaVuSans-6f" x="529.003906"/>
       <use xlink:href="#DejaVuSans-67" x="590.185547"/>
       <use xlink:href="#DejaVuSans-65" x="653.662109"/>
      </g>
     </g>
    </g>
    <g id="ytick_8">
     <g id="line2d_26">
      <g>
       <use xlink:href="#mdf66c61492" x="174.563636" y="422.329773" style="fill: #7a99ba; stroke: #7a99ba; stroke-width: 0.8"/>
      </g>
     </g>
     <g id="text_18">
      <!-- Life Science Manager -->
      <g style="fill: #7a99ba" transform="translate(60.582386 426.128992) scale(0.1 -0.1)">
       <defs>
        <path id="DejaVuSans-66" d="M 2375 4863 
L 2375 4384 
L 1825 4384 
Q 1516 4384 1395 4259 
Q 1275 4134 1275 3809 
L 1275 3500 
L 2222 3500 
L 2222 3053 
L 1275 3053 
L 1275 0 
L 697 0 
L 697 3053 
L 147 3053 
L 147 3500 
L 697 3500 
L 697 3744 
Q 697 4328 969 4595 
Q 1241 4863 1831 4863 
L 2375 4863 
z
" transform="scale(0.015625)"/>
       </defs>
       <use xlink:href="#DejaVuSans-4c"/>
       <use xlink:href="#DejaVuSans-69" x="55.712891"/>
       <use xlink:href="#DejaVuSans-66" x="83.496094"/>
       <use xlink:href="#DejaVuSans-65" x="118.701172"/>
       <use xlink:href="#DejaVuSans-20" x="180.224609"/>
       <use xlink:href="#DejaVuSans-53" x="212.011719"/>
       <use xlink:href="#DejaVuSans-63" x="275.488281"/>
       <use xlink:href="#DejaVuSans-69" x="330.46875"/>
       <use xlink:href="#DejaVuSans-65" x="358.251953"/>
       <use xlink:href="#DejaVuSans-6e" x="419.775391"/>
       <use xlink:href="#DejaVuSans-63" x="483.154297"/>
       <use xlink:href="#DejaVuSans-65" x="538.134766"/>
       <use xlink:href="#DejaVuSans-20" x="599.658203"/>
       <use xlink:href="#DejaVuSans-4d" x="631.445312"/>
       <use xlink:href="#DejaVuSans-61" x="717.724609"/>
       <use xlink:href="#DejaVuSans-6e" x="779.003906"/>
       <use xlink:href="#DejaVuSans-61" x="842.382812"/>
       <use xlink:href="#DejaVuSans-67" x="903.662109"/>
       <use xlink:href="#DejaVuSans-65" x="967.138672"/>
       <use xlink:href="#DejaVuSans-72" x="1028.662109"/>
      </g>
     </g>
    </g>
    <g id="ytick_9">
     <g id="line2d_27">
      <g>
       <use xlink:href="#mdf66c61492" x="174.563636" y="473.658713" style="fill: #7a99ba; stroke: #7a99ba; stroke-width: 0.8"/>
      </g>
     </g>
     <g id="text_19">
      <!-- CRA -->
      <g style="fill: #7a99ba" transform="translate(147.191761 477.457931) scale(0.1 -0.1)">
       <defs>
        <path id="DejaVuSans-43" d="M 4122 4306 
L 4122 3641 
Q 3803 3938 3442 4084 
Q 3081 4231 2675 4231 
Q 1875 4231 1450 3742 
Q 1025 3253 1025 2328 
Q 1025 1406 1450 917 
Q 1875 428 2675 428 
Q 3081 428 3442 575 
Q 3803 722 4122 1019 
L 4122 359 
Q 3791 134 3420 21 
Q 3050 -91 2638 -91 
Q 1578 -91 968 557 
Q 359 1206 359 2328 
Q 359 3453 968 4101 
Q 1578 4750 2638 4750 
Q 3056 4750 3426 4639 
Q 3797 4528 4122 4306 
z
" transform="scale(0.015625)"/>
       </defs>
       <use xlink:href="#DejaVuSans-43"/>
       <use xlink:href="#DejaVuSans-52" x="69.824219"/>
       <use xlink:href="#DejaVuSans-41" x="135.306641"/>
      </g>
     </g>
    </g>
    <g id="ytick_10">
     <g id="line2d_28">
      <g>
       <use xlink:href="#mdf66c61492" x="174.563636" y="524.987652" style="fill: #7a99ba; stroke: #7a99ba; stroke-width: 0.8"/>
      </g>
     </g>
     <g id="text_20">
      <!-- Apotheker -->
      <g style="fill: #7a99ba" transform="translate(116.152699 528.786871) scale(0.1 -0.1)">
       <defs>
        <path id="DejaVuSans-6b" d="M 581 4863 
L 1159 4863 
L 1159 1991 
L 2875 3500 
L 3609 3500 
L 1753 1863 
L 3688 0 
L 2938 0 
L 1159 1709 
L 1159 0 
L 581 0 
L 581 4863 
z
" transform="scale(0.015625)"/>
       </defs>
       <use xlink:href="#DejaVuSans-41"/>
       <use xlink:href="#DejaVuSans-70" x="68.408203"/>
       <use xlink:href="#DejaVuSans-6f" x="131.884766"/>
       <use xlink:href="#DejaVuSans-74" x="193.066406"/>
       <use xlink:href="#DejaVuSans-68" x="232.275391"/>
       <use xlink:href="#DejaVuSans-65" x="295.654297"/>
       <use xlink:href="#DejaVuSans-6b" x="357.177734"/>
       <use xlink:href="#DejaVuSans-65" x="411.462891"/>
       <use xlink:href="#DejaVuSans-72" x="472.986328"/>
      </g>
     </g>
    </g>
    <g id="ytick_11">
     <g id="line2d_29">
      <g>
       <use xlink:href="#mdf66c61492" x="174.563636" y="576.316592" style="fill: #7a99ba; stroke: #7a99ba; stroke-width: 0.8"/>
      </g>
     </g>
     <g id="text_21">
      <!-- Pharma Assistentin -->
      <g style="fill: #7a99ba" transform="translate(71.391761 580.11581) scale(0.1 -0.1)">
       <use xlink:href="#DejaVuSans-50"/>
       <use xlink:href="#DejaVuSans-68" x="60.302734"/>
       <use xlink:href="#DejaVuSans-61" x="123.681641"/>
       <use xlink:href="#DejaVuSans-72" x="184.960938"/>
       <use xlink:href="#DejaVuSans-6d" x="224.324219"/>
       <use xlink:href="#DejaVuSans-61" x="321.736328"/>
       <use xlink:href="#DejaVuSans-20" x="383.015625"/>
       <use xlink:href="#DejaVuSans-41" x="414.802734"/>
       <use xlink:href="#DejaVuSans-73" x="483.210938"/>
       <use xlink:href="#DejaVuSans-73" x="535.310547"/>
       <use xlink:href="#DejaVuSans-69" x="587.410156"/>
       <use xlink:href="#DejaVuSans-73" x="615.193359"/>
       <use xlink:href="#DejaVuSans-74" x="667.292969"/>
       <use xlink:href="#DejaVuSans-65" x="706.501953"/>
       <use xlink:href="#DejaVuSans-6e" x="768.025391"/>
       <use xlink:href="#DejaVuSans-74" x="831.404297"/>
       <use xlink:href="#DejaVuSans-69" x="870.613281"/>
       <use xlink:href="#DejaVuSans-6e" x="898.396484"/>
      </g>
     </g>
    </g>
    <g id="ytick_12">
     <g id="line2d_30">
      <g>
       <use xlink:href="#mdf66c61492" x="174.563636" y="627.645531" style="fill: #7a99ba; stroke: #7a99ba; stroke-width: 0.8"/>
      </g>
     </g>
     <g id="text_22">
      <!-- Senior Scientist -->
      <g style="fill: #7a99ba" transform="translate(89.594886 631.44475) scale(0.1 -0.1)">
       <use xlink:href="#DejaVuSans-53"/>
       <use xlink:href="#DejaVuSans-65" x="63.476562"/>
       <use xlink:href="#DejaVuSans-6e" x="125"/>
       <use xlink:href="#DejaVuSans-69" x="188.378906"/>
       <use xlink:href="#DejaVuSans-6f" x="216.162109"/>
       <use xlink:href="#DejaVuSans-72" x="277.34375"/>
       <use xlink:href="#DejaVuSans-20" x="318.457031"/>
       <use xlink:href="#DejaVuSans-53" x="350.244141"/>
       <use xlink:href="#DejaVuSans-63" x="413.720703"/>
       <use xlink:href="#DejaVuSans-69" x="468.701172"/>
       <use xlink:href="#DejaVuSans-65" x="496.484375"/>
       <use xlink:href="#DejaVuSans-6e" x="558.007812"/>
       <use xlink:href="#DejaVuSans-74" x="621.386719"/>
       <use xlink:href="#DejaVuSans-69" x="660.595703"/>
       <use xlink:href="#DejaVuSans-73" x="688.378906"/>
       <use xlink:href="#DejaVuSans-74" x="740.478516"/>
      </g>
     </g>
    </g>
   </g>
   <g id="patch_39">
    <path d="M 174.563636 679.872727 
L 174.563636 10.8 
" style="fill: none; stroke: #1a1f2e; stroke-width: 0.8; stroke-linejoin: miter; stroke-linecap: square"/>
   </g>
   <g id="patch_40">
    <path d="M 637.2 679.872727 
L 637.2 10.8 
" style="fill: none; stroke: #1a1f2e; stroke-width: 0.8; stroke-linejoin: miter; stroke-linecap: square"/>
   </g>
   <g id="patch_41">
    <path d="M 174.563636 679.872727 
L 637.2 679.872727 
" style="fill: none; stroke: #1a1f2e; stroke-width: 0.8; stroke-linejoin: miter; stroke-linecap: square"/>
   </g>
   <g id="patch_42">
    <path d="M 174.563636 10.8 
L 637.2 10.8 
" style="fill: none; stroke: #1a1f2e; stroke-width: 0.8; stroke-linejoin: miter; stroke-linecap: square"/>
   </g>
   <g id="text_23">
    <!-- 98 -->
    <g style="fill: #dce8f5" transform="translate(288.725963 50.829465) scale(0.085 -0.085)">
     <defs>
      <path id="DejaVuSans-39" d="M 703 97 
L 703 672 
Q 941 559 1184 500 
Q 1428 441 1663 441 
Q 2288 441 2617 861 
Q 2947 1281 2994 2138 
Q 2813 1869 2534 1725 
Q 2256 1581 1919 1581 
Q 1219 1581 811 2004 
Q 403 2428 403 3163 
Q 403 3881 828 4315 
Q 1253 4750 1959 4750 
Q 2769 4750 3195 4129 
Q 3622 3509 3622 2328 
Q 3622 1225 3098 567 
Q 2575 -91 1691 -91 
Q 1453 -91 1209 -44 
Q 966 3 703 97 
z
M 1959 2075 
Q 2384 2075 2632 2365 
Q 2881 2656 2881 3163 
Q 2881 3666 2632 3958 
Q 2384 4250 1959 4250 
Q 1534 4250 1286 3958 
Q 1038 3666 1038 3163 
Q 1038 2656 1286 2365 
Q 1534 2075 1959 2075 
z
" transform="scale(0.015625)"/>
      <path id="DejaVuSans-38" d="M 2034 2216 
Q 1584 2216 1326 1975 
Q 1069 1734 1069 1313 
Q 1069 891 1326 650 
Q 1584 409 2034 409 
Q 2484 409 2743 651 
Q 3003 894 3003 1313 
Q 3003 1734 2745 1975 
Q 2488 2216 2034 2216 
z
M 1403 2484 
Q 997 2584 770 2862 
Q 544 3141 544 3541 
Q 544 4100 942 4425 
Q 1341 4750 2034 4750 
Q 2731 4750 3128 4425 
Q 3525 4100 3525 3541 
Q 3525 3141 3298 2862 
Q 3072 2584 2669 2484 
Q 3125 2378 3379 2068 
Q 3634 1759 3634 1313 
Q 3634 634 3220 271 
Q 2806 -91 2034 -91 
Q 1263 -91 848 271 
Q 434 634 434 1313 
Q 434 1759 690 2068 
Q 947 2378 1403 2484 
z
M 1172 3481 
Q 1172 3119 1398 2916 
Q 1625 2713 2034 2713 
Q 2441 2713 2670 2916 
Q 2900 3119 2900 3481 
Q 2900 3844 2670 4047 
Q 2441 4250 2034 4250 
Q 1625 4250 1398 4047 
Q 1172 3844 1172 3481 
z
" transform="scale(0.015625)"/>
     </defs>
     <use xlink:href="#DejaVuSans-39"/>
     <use xlink:href="#DejaVuSans-38" x="63.623047"/>
    </g>
   </g>
   <g id="text_24">
    <!-- 335 -->
    <g style="fill: #dce8f5" transform="translate(557.463262 102.158405) scale(0.085 -0.085)">
     <use xlink:href="#DejaVuSans-33"/>
     <use xlink:href="#DejaVuSans-33" x="63.623047"/>
     <use xlink:href="#DejaVuSans-35" x="127.246094"/>
    </g>
   </g>
   <g id="text_25">
    <!-- 296 -->
    <g style="fill: #dce8f5" transform="translate(513.240668 153.487344) scale(0.085 -0.085)">
     <defs>
      <path id="DejaVuSans-36" d="M 2113 2584 
Q 1688 2584 1439 2293 
Q 1191 2003 1191 1497 
Q 1191 994 1439 701 
Q 1688 409 2113 409 
Q 2538 409 2786 701 
Q 3034 994 3034 1497 
Q 3034 2003 2786 2293 
Q 2538 2584 2113 2584 
z
M 3366 4563 
L 3366 3988 
Q 3128 4100 2886 4159 
Q 2644 4219 2406 4219 
Q 1781 4219 1451 3797 
Q 1122 3375 1075 2522 
Q 1259 2794 1537 2939 
Q 1816 3084 2150 3084 
Q 2853 3084 3261 2657 
Q 3669 2231 3669 1497 
Q 3669 778 3244 343 
Q 2819 -91 2113 -91 
Q 1303 -91 875 529 
Q 447 1150 447 2328 
Q 447 3434 972 4092 
Q 1497 4750 2381 4750 
Q 2619 4750 2861 4703 
Q 3103 4656 3366 4563 
z
" transform="scale(0.015625)"/>
     </defs>
     <use xlink:href="#DejaVuSans-32"/>
     <use xlink:href="#DejaVuSans-39" x="63.623047"/>
     <use xlink:href="#DejaVuSans-36" x="127.246094"/>
    </g>
   </g>
   <g id="text_26">
    <!-- 259 -->
    <g style="fill: #dce8f5" transform="translate(471.2859 204.816284) scale(0.085 -0.085)">
     <use xlink:href="#DejaVuSans-32"/>
     <use xlink:href="#DejaVuSans-35" x="63.623047"/>
     <use xlink:href="#DejaVuSans-39" x="127.246094"/>
    </g>
   </g>
   <g id="text_27">
    <!-- 201 -->
    <g style="fill: #dce8f5" transform="translate(405.518966 256.145223) scale(0.085 -0.085)">
     <use xlink:href="#DejaVuSans-32"/>
     <use xlink:href="#DejaVuSans-30" x="63.623047"/>
     <use xlink:href="#DejaVuSans-31" x="127.246094"/>
    </g>
   </g>
   <g id="text_28">
    <!-- 157 -->
    <g style="fill: #dce8f5" transform="translate(355.626809 307.474163) scale(0.085 -0.085)">
     <defs>
      <path id="DejaVuSans-37" d="M 525 4666 
L 3525 4666 
L 3525 4397 
L 1831 0 
L 1172 0 
L 2766 4134 
L 525 4134 
L 525 4666 
z
" transform="scale(0.015625)"/>
     </defs>
     <use xlink:href="#DejaVuSans-31"/>
     <use xlink:href="#DejaVuSans-35" x="63.623047"/>
     <use xlink:href="#DejaVuSans-37" x="127.246094"/>
    </g>
   </g>
   <g id="text_29">
    <!-- 3 -->
    <g style="fill: #dce8f5" transform="translate(181.00426 358.803103) scale(0.085 -0.085)">
     <use xlink:href="#DejaVuSans-33"/>
    </g>
   </g>
   <g id="text_30">
    <!-- 133 -->
    <g style="fill: #dce8f5" transform="translate(328.412906 410.132042) scale(0.085 -0.085)">
     <use xlink:href="#DejaVuSans-31"/>
     <use xlink:href="#DejaVuSans-33" x="63.623047"/>
     <use xlink:href="#DejaVuSans-33" x="127.246094"/>
    </g>
   </g>
   <g id="text_31">
    <!-- 59 -->
    <g style="fill: #dce8f5" transform="translate(244.503369 461.460982) scale(0.085 -0.085)">
     <use xlink:href="#DejaVuSans-35"/>
     <use xlink:href="#DejaVuSans-39" x="63.623047"/>
    </g>
   </g>
   <g id="text_32">
    <!-- 89 -->
    <g style="fill: #dce8f5" transform="translate(278.520749 512.789921) scale(0.085 -0.085)">
     <use xlink:href="#DejaVuSans-38"/>
     <use xlink:href="#DejaVuSans-39" x="63.623047"/>
    </g>
   </g>
   <g id="text_33">
    <!-- 87 -->
    <g style="fill: #dce8f5" transform="translate(276.252923 564.118861) scale(0.085 -0.085)">
     <use xlink:href="#DejaVuSans-38"/>
     <use xlink:href="#DejaVuSans-37" x="63.623047"/>
    </g>
   </g>
   <g id="text_34">
    <!-- 60 -->
    <g style="fill: #dce8f5" transform="translate(245.637282 615.4478) scale(0.085 -0.085)">
     <use xlink:href="#DejaVuSans-36"/>
     <use xlink:href="#DejaVuSans-30" x="63.623047"/>
    </g>
   </g>
   <g id="text_35">
    <!-- 66 -->
    <g style="fill: #dce8f5" transform="translate(252.440758 65.372665) scale(0.085 -0.085)">
     <use xlink:href="#DejaVuSans-36"/>
     <use xlink:href="#DejaVuSans-36" x="63.623047"/>
    </g>
   </g>
   <g id="text_36">
    <!-- 228 -->
    <g style="fill: #dce8f5" transform="translate(436.134608 116.701604) scale(0.085 -0.085)">
     <use xlink:href="#DejaVuSans-32"/>
     <use xlink:href="#DejaVuSans-32" x="63.623047"/>
     <use xlink:href="#DejaVuSans-38" x="127.246094"/>
    </g>
   </g>
   <g id="text_37">
    <!-- 97 -->
    <g style="fill: #dce8f5" transform="translate(287.59205 168.030544) scale(0.085 -0.085)">
     <use xlink:href="#DejaVuSans-39"/>
     <use xlink:href="#DejaVuSans-37" x="63.623047"/>
    </g>
   </g>
   <g id="text_38">
    <!-- 40 -->
    <g style="fill: #dce8f5" transform="translate(222.959029 219.359483) scale(0.085 -0.085)">
     <use xlink:href="#DejaVuSans-34"/>
     <use xlink:href="#DejaVuSans-30" x="63.623047"/>
    </g>
   </g>
   <g id="text_39">
    <!-- 13 -->
    <g style="fill: #dce8f5" transform="translate(192.343387 270.688423) scale(0.085 -0.085)">
     <use xlink:href="#DejaVuSans-31"/>
     <use xlink:href="#DejaVuSans-33" x="63.623047"/>
    </g>
   </g>
   <g id="text_40">
    <!-- 3 -->
    <g style="fill: #dce8f5" transform="translate(181.00426 322.017363) scale(0.085 -0.085)">
     <use xlink:href="#DejaVuSans-33"/>
    </g>
   </g>
   <g id="text_41">
    <!-- 34 -->
    <g style="fill: #dce8f5" transform="translate(216.155553 424.675242) scale(0.085 -0.085)">
     <use xlink:href="#DejaVuSans-33"/>
     <use xlink:href="#DejaVuSans-34" x="63.623047"/>
    </g>
   </g>
   <g id="text_42">
    <!-- 105 -->
    <g style="fill: #dce8f5" transform="translate(296.663351 476.004181) scale(0.085 -0.085)">
     <use xlink:href="#DejaVuSans-31"/>
     <use xlink:href="#DejaVuSans-30" x="63.623047"/>
     <use xlink:href="#DejaVuSans-35" x="127.246094"/>
    </g>
   </g>
   <g id="text_43">
    <!-- 37 -->
    <g style="fill: #dce8f5" transform="translate(219.557291 527.333121) scale(0.085 -0.085)">
     <use xlink:href="#DejaVuSans-33"/>
     <use xlink:href="#DejaVuSans-37" x="63.623047"/>
    </g>
   </g>
   <g id="text_44">
    <!-- 6 -->
    <g style="fill: #dce8f5" transform="translate(184.405998 578.66206) scale(0.085 -0.085)">
     <use xlink:href="#DejaVuSans-36"/>
    </g>
   </g>
   <g id="text_45">
    <!-- 18 -->
    <g style="fill: #dce8f5" transform="translate(198.01295 629.991) scale(0.085 -0.085)">
     <use xlink:href="#DejaVuSans-31"/>
     <use xlink:href="#DejaVuSans-38" x="63.623047"/>
    </g>
   </g>
   <g id="text_46">
    <!-- 340 -->
    <g style="fill: #dce8f5" transform="translate(563.178182 79.915864) scale(0.085 -0.085)">
     <use xlink:href="#DejaVuSans-33"/>
     <use xlink:href="#DejaVuSans-34" x="63.623047"/>
     <use xlink:href="#DejaVuSans-30" x="127.246094"/>
    </g>
   </g>
   <g id="text_47">
    <!-- 2 -->
    <g style="fill: #dce8f5" transform="translate(179.915704 131.244804) scale(0.085 -0.085)">
     <use xlink:href="#DejaVuSans-32"/>
    </g>
   </g>
   <g id="text_48">
    <!-- 37 -->
    <g style="fill: #dce8f5" transform="translate(219.602647 182.573743) scale(0.085 -0.085)">
     <use xlink:href="#DejaVuSans-33"/>
     <use xlink:href="#DejaVuSans-37" x="63.623047"/>
    </g>
   </g>
   <g id="text_49">
    <!-- 20 -->
    <g style="fill: #dce8f5" transform="translate(200.326132 233.902683) scale(0.085 -0.085)">
     <use xlink:href="#DejaVuSans-32"/>
     <use xlink:href="#DejaVuSans-30" x="63.623047"/>
    </g>
   </g>
   <g id="text_50">
    <!-- 11 -->
    <g style="fill: #dce8f5" transform="translate(190.120918 285.231623) scale(0.085 -0.085)">
     <use xlink:href="#DejaVuSans-31"/>
     <use xlink:href="#DejaVuSans-31" x="63.623047"/>
    </g>
   </g>
   <g id="text_51">
    <!-- 2 -->
    <g style="fill: #dce8f5" transform="translate(179.915704 336.560562) scale(0.085 -0.085)">
     <use xlink:href="#DejaVuSans-32"/>
    </g>
   </g>
   <g id="text_52">
    <!-- 136 -->
    <g style="fill: #dce8f5" transform="translate(331.86 387.889502) scale(0.085 -0.085)">
     <use xlink:href="#DejaVuSans-31"/>
     <use xlink:href="#DejaVuSans-33" x="63.623047"/>
     <use xlink:href="#DejaVuSans-36" x="127.246094"/>
    </g>
   </g>
   <g id="text_53">
    <!-- 24 -->
    <g style="fill: #dce8f5" transform="translate(204.861783 439.218441) scale(0.085 -0.085)">
     <use xlink:href="#DejaVuSans-32"/>
     <use xlink:href="#DejaVuSans-34" x="63.623047"/>
    </g>
   </g>
   <g id="text_54">
    <!-- 8 -->
    <g style="fill: #dce8f5" transform="translate(186.71918 490.547381) scale(0.085 -0.085)">
     <use xlink:href="#DejaVuSans-38"/>
    </g>
   </g>
   <g id="text_55">
    <!-- 52 -->
    <g style="fill: #dce8f5" transform="translate(236.611337 541.87632) scale(0.085 -0.085)">
     <use xlink:href="#DejaVuSans-35"/>
     <use xlink:href="#DejaVuSans-32" x="63.623047"/>
    </g>
   </g>
   <g id="text_56">
    <!-- 62 -->
    <g style="fill: #dce8f5" transform="translate(247.950463 593.20526) scale(0.085 -0.085)">
     <use xlink:href="#DejaVuSans-36"/>
     <use xlink:href="#DejaVuSans-32" x="63.623047"/>
    </g>
   </g>
   <g id="text_57">
    <!-- 17 -->
    <g style="fill: #dce8f5" transform="translate(196.924394 644.5342) scale(0.085 -0.085)">
     <use xlink:href="#DejaVuSans-31"/>
     <use xlink:href="#DejaVuSans-37" x="63.623047"/>
    </g>
   </g>
   <g id="legend_1">
    <g id="patch_43">
     <path d="M 367.434844 675.372727 
L 630.9 675.372727 
Q 632.7 675.372727 632.7 673.572727 
L 632.7 661.262415 
Q 632.7 659.462415 630.9 659.462415 
L 367.434844 659.462415 
Q 365.634844 659.462415 365.634844 661.262415 
L 365.634844 673.572727 
Q 365.634844 675.372727 367.434844 675.372727 
z
" style="fill: #0e1118; opacity: 0.8; stroke: #1a1f2e; stroke-linejoin: miter"/>
    </g>
    <g id="patch_44">
     <path d="M 369.234844 669.901009 
L 387.234844 669.901009 
L 387.234844 663.601009 
L 369.234844 663.601009 
z
" style="fill: #7c3aed"/>
    </g>
    <g id="text_58">
     <!-- jobs.ch -->
     <g style="fill: #dce8f5" transform="translate(394.434844 669.901009) scale(0.09 -0.09)">
      <defs>
       <path id="DejaVuSans-6a" d="M 603 3500 
L 1178 3500 
L 1178 -63 
Q 1178 -731 923 -1031 
Q 669 -1331 103 -1331 
L -116 -1331 
L -116 -844 
L 38 -844 
Q 366 -844 484 -692 
Q 603 -541 603 -63 
L 603 3500 
z
M 603 4863 
L 1178 4863 
L 1178 4134 
L 603 4134 
L 603 4863 
z
" transform="scale(0.015625)"/>
       <path id="DejaVuSans-2e" d="M 684 794 
L 1344 794 
L 1344 0 
L 684 0 
L 684 794 
z
" transform="scale(0.015625)"/>
      </defs>
      <use xlink:href="#DejaVuSans-6a"/>
      <use xlink:href="#DejaVuSans-6f" x="27.783203"/>
      <use xlink:href="#DejaVuSans-62" x="88.964844"/>
      <use xlink:href="#DejaVuSans-73" x="152.441406"/>
      <use xlink:href="#DejaVuSans-2e" x="204.541016"/>
      <use xlink:href="#DejaVuSans-63" x="236.328125"/>
      <use xlink:href="#DejaVuSans-68" x="291.308594"/>
     </g>
    </g>
    <g id="patch_45">
     <path d="M 444.356719 669.901009 
L 462.356719 669.901009 
L 462.356719 663.601009 
L 444.356719 663.601009 
z
" style="fill: #dc2626"/>
    </g>
    <g id="text_59">
     <!-- arbeit.swiss -->
     <g style="fill: #dce8f5" transform="translate(469.556719 669.901009) scale(0.09 -0.09)">
      <defs>
       <path id="DejaVuSans-77" d="M 269 3500 
L 844 3500 
L 1563 769 
L 2278 3500 
L 2956 3500 
L 3675 769 
L 4391 3500 
L 4966 3500 
L 4050 0 
L 3372 0 
L 2619 2869 
L 1863 0 
L 1184 0 
L 269 3500 
z
" transform="scale(0.015625)"/>
      </defs>
      <use xlink:href="#DejaVuSans-61"/>
      <use xlink:href="#DejaVuSans-72" x="61.279297"/>
      <use xlink:href="#DejaVuSans-62" x="102.392578"/>
      <use xlink:href="#DejaVuSans-65" x="165.869141"/>
      <use xlink:href="#DejaVuSans-69" x="227.392578"/>
      <use xlink:href="#DejaVuSans-74" x="255.175781"/>
      <use xlink:href="#DejaVuSans-2e" x="294.384766"/>
      <use xlink:href="#DejaVuSans-73" x="326.171875"/>
      <use xlink:href="#DejaVuSans-77" x="378.271484"/>
      <use xlink:href="#DejaVuSans-69" x="460.058594"/>
      <use xlink:href="#DejaVuSans-73" x="487.841797"/>
      <use xlink:href="#DejaVuSans-73" x="539.941406"/>
     </g>
    </g>
    <g id="patch_46">
     <path d="M 540.838125 669.901009 
L 558.838125 669.901009 
L 558.838125 663.601009 
L 540.838125 663.601009 
z
" style="fill: #14b8a6"/>
    </g>
    <g id="text_60">
     <!-- jobscout24.ch -->
     <g style="fill: #dce8f5" transform="translate(566.038125 669.901009) scale(0.09 -0.09)">
      <use xlink:href="#DejaVuSans-6a"/>
      <use xlink:href="#DejaVuSans-6f" x="27.783203"/>
      <use xlink:href="#DejaVuSans-62" x="88.964844"/>
      <use xlink:href="#DejaVuSans-73" x="152.441406"/>
      <use xlink:href="#DejaVuSans-63" x="204.541016"/>
      <use xlink:href="#DejaVuSans-6f" x="259.521484"/>
      <use xlink:href="#DejaVuSans-75" x="320.703125"/>
      <use xlink:href="#DejaVuSans-74" x="384.082031"/>
      <use xlink:href="#DejaVuSans-32" x="423.291016"/>
      <use xlink:href="#DejaVuSans-34" x="486.914062"/>
      <use xlink:href="#DejaVuSans-2e" x="550.537109"/>
      <use xlink:href="#DejaVuSans-63" x="582.324219"/>
      <use xlink:href="#DejaVuSans-68" x="637.304688"/>
     </g>
    </g>
   </g>
  </g>
 </g>
 <defs>
  <clipPath id="p07c61f6e68">
   <rect x="174.563636" y="10.8" width="462.636364" height="669.072727"/>
  </clipPath>
 </defs>
</svg>
