<svg xmlns="http://www.w3.org/2000/svg" viewBox="0 0 900 746" width="100%" style="max-width:900px;font-family:-apple-system,BlinkMacSystemFont,'Segoe UI',Roboto,Helvetica,Arial,sans-serif" role="img" aria-labelledby="chart-title chart-desc">
<title id="chart-title">Fortune 500 ATS distribution</title>
<desc id="chart-desc">Horizontal bar chart of the ATS distribution across the Fortune 500, color-coded by NanoScrape scraper tier.</desc>
<rect width="900" height="746" fill="#fafafa" rx="8"/>
<text x="24" y="34" font-size="18" font-weight="700" fill="#1a1a1a">Fortune 500 ATS distribution (n=500)</text>
<text x="24" y="56" font-size="12" fill="#666">Bars color-coded by recommended NanoScrape scraper tier.</text>
<rect x="24" y="67" width="12" height="12" fill="#2563eb" rx="2"/>
<text x="42" y="76" font-size="10.5" fill="#333">Tier 1 (Career Site Jobs Scraper)</text>
<rect x="244" y="67" width="12" height="12" fill="#059669" rx="2"/>
<text x="262" y="76" font-size="10.5" fill="#333">Tier 2 (Website Job Extractor)</text>
<rect x="464" y="67" width="12" height="12" fill="#d97706" rx="2"/>
<text x="482" y="76" font-size="10.5" fill="#333">Tier 3 (Browser variant)</text>
<rect x="684" y="67" width="12" height="12" fill="#dc2626" rx="2"/>
<text x="702" y="76" font-size="10.5" fill="#333">Tier 4 (Custom build)</text>
<line x1="311" y1="82" x2="311" y2="710" stroke="#e5e5e5"/>
<text x="311" y="724" font-size="9.5" fill="#888" text-anchor="middle">25</text>
<line x1="453" y1="82" x2="453" y2="710" stroke="#e5e5e5"/>
<text x="453" y="724" font-size="9.5" fill="#888" text-anchor="middle">50</text>
<line x1="595" y1="82" x2="595" y2="710" stroke="#e5e5e5"/>
<text x="595" y="724" font-size="9.5" fill="#888" text-anchor="middle">75</text>
<line x1="737" y1="82" x2="737" y2="710" stroke="#e5e5e5"/>
<text x="737" y="724" font-size="9.5" fill="#888" text-anchor="middle">100</text>
<text x="162" y="104.96000000000001" font-size="11.5" fill="#333" text-anchor="end">Workday</text>
<rect x="170" y="90" width="670" height="22" fill="#2563eb" rx="2"/>
<text x="832" y="104.96000000000001" font-size="11" fill="white" text-anchor="end" font-weight="600">118 (23.6%)</text>
<text x="162" y="132.96" font-size="11.5" fill="#333" text-anchor="end">Custom (in-house)</text>
<rect x="170" y="118" width="584" height="22" fill="#059669" rx="2"/>
<text x="746" y="132.96" font-size="11" fill="white" text-anchor="end" font-weight="600">103 (20.6%)</text>
<text x="162" y="160.96" font-size="11.5" fill="#333" text-anchor="end">pending_browser_check</text>
<rect x="170" y="146" width="283" height="22" fill="#d97706" rx="2"/>
<text x="445" y="160.96" font-size="11" fill="white" text-anchor="end" font-weight="600">50 (10.0%)</text>
<text x="162" y="188.96" font-size="11.5" fill="#333" text-anchor="end">Phenom</text>
<rect x="170" y="174" width="232" height="22" fill="#2563eb" rx="2"/>
<text x="394" y="188.96" font-size="11" fill="white" text-anchor="end" font-weight="600">41 (8.2%)</text>
<text x="162" y="216.96" font-size="11.5" fill="#333" text-anchor="end">Oracle Recruiting</text>
<rect x="170" y="202" width="181" height="22" fill="#2563eb" rx="2"/>
<text x="343" y="216.96" font-size="11" fill="white" text-anchor="end" font-weight="600">32 (6.4%)</text>
<text x="162" y="244.96" font-size="11.5" fill="#333" text-anchor="end">iCIMS</text>
<rect x="170" y="230" width="176" height="22" fill="#2563eb" rx="2"/>
<text x="338" y="244.96" font-size="11" fill="white" text-anchor="end" font-weight="600">31 (6.2%)</text>
<text x="162" y="272.96" font-size="11.5" fill="#333" text-anchor="end">SuccessFactors</text>
<rect x="170" y="258" width="158" height="22" fill="#dc2626" rx="2"/>
<text x="320" y="272.96" font-size="11" fill="white" text-anchor="end" font-weight="600">28 (5.6%)</text>
<text x="162" y="300.96" font-size="11.5" fill="#333" text-anchor="end">TalentBrew</text>
<rect x="170" y="286" width="124" height="22" fill="#2563eb" rx="2"/>
<text x="286" y="300.96" font-size="11" fill="white" text-anchor="end" font-weight="600">22 (4.4%)</text>
<text x="162" y="328.96" font-size="11.5" fill="#333" text-anchor="end">Eightfold</text>
<rect x="170" y="314" width="90" height="22" fill="#2563eb" rx="2"/>
<text x="268" y="328.96" font-size="11" fill="#333" text-anchor="start" font-weight="600">16 (3.2%)</text>
<text x="162" y="356.96" font-size="11.5" fill="#333" text-anchor="end">Paradox</text>
<rect x="170" y="342" width="85" height="22" fill="#d97706" rx="2"/>
<text x="263" y="356.96" font-size="11" fill="#333" text-anchor="start" font-weight="600">15 (3.0%)</text>
<text x="162" y="384.96" font-size="11.5" fill="#333" text-anchor="end">Taleo (modern)</text>
<rect x="170" y="370" width="45" height="22" fill="#2563eb" rx="2"/>
<text x="223" y="384.96" font-size="11" fill="#333" text-anchor="start" font-weight="600">8 (1.6%)</text>
<text x="162" y="412.96" font-size="11.5" fill="#333" text-anchor="end">Brassring</text>
<rect x="170" y="398" width="45" height="22" fill="#2563eb" rx="2"/>
<text x="223" y="412.96" font-size="11" fill="#333" text-anchor="start" font-weight="600">8 (1.6%)</text>
<text x="162" y="440.96" font-size="11.5" fill="#333" text-anchor="end">Beamery</text>
<rect x="170" y="426" width="34" height="22" fill="#d97706" rx="2"/>
<text x="212" y="440.96" font-size="11" fill="#333" text-anchor="start" font-weight="600">6 (1.2%)</text>
<text x="162" y="468.96" font-size="11.5" fill="#333" text-anchor="end">Avature</text>
<rect x="170" y="454" width="28" height="22" fill="#2563eb" rx="2"/>
<text x="206" y="468.96" font-size="11" fill="#333" text-anchor="start" font-weight="600">5 (1.0%)</text>
<text x="162" y="496.96" font-size="11.5" fill="#333" text-anchor="end">ADP</text>
<rect x="170" y="482" width="22" height="22" fill="#2563eb" rx="2"/>
<text x="200" y="496.96" font-size="11" fill="#333" text-anchor="start" font-weight="600">4 (0.8%)</text>
<text x="162" y="524.96" font-size="11.5" fill="#333" text-anchor="end">Greenhouse</text>
<rect x="170" y="510" width="17" height="22" fill="#2563eb" rx="2"/>
<text x="195" y="524.96" font-size="11" fill="#333" text-anchor="start" font-weight="600">3 (0.6%)</text>
<text x="162" y="552.96" font-size="11.5" fill="#333" text-anchor="end">SmartRecruiters</text>
<rect x="170" y="538" width="17" height="22" fill="#2563eb" rx="2"/>
<text x="195" y="552.96" font-size="11" fill="#333" text-anchor="start" font-weight="600">3 (0.6%)</text>
<text x="162" y="580.96" font-size="11.5" fill="#333" text-anchor="end">Jobvite</text>
<rect x="170" y="566" width="11" height="22" fill="#dc2626" rx="2"/>
<text x="189" y="580.96" font-size="11" fill="#333" text-anchor="start" font-weight="600">2 (0.4%)</text>
<text x="162" y="608.96" font-size="11.5" fill="#333" text-anchor="end">PageUp</text>
<rect x="170" y="594" width="11" height="22" fill="#d97706" rx="2"/>
<text x="189" y="608.96" font-size="11" fill="#333" text-anchor="start" font-weight="600">2 (0.4%)</text>
<text x="162" y="636.96" font-size="11.5" fill="#333" text-anchor="end">Activate</text>
<rect x="170" y="622" width="5" height="22" fill="#d97706" rx="2"/>
<text x="183" y="636.96" font-size="11" fill="#333" text-anchor="start" font-weight="600">1 (0.2%)</text>
<text x="162" y="664.96" font-size="11.5" fill="#333" text-anchor="end">BambooHR</text>
<rect x="170" y="650" width="5" height="22" fill="#2563eb" rx="2"/>
<text x="183" y="664.96" font-size="11" fill="#333" text-anchor="start" font-weight="600">1 (0.2%)</text>
<text x="162" y="692.96" font-size="11.5" fill="#333" text-anchor="end">UKG</text>
<rect x="170" y="678" width="5" height="22" fill="#d97706" rx="2"/>
<text x="183" y="692.96" font-size="11" fill="#333" text-anchor="start" font-weight="600">1 (0.2%)</text>
</svg>